# xmcd CD database file
#
# Track frame offsets:
#	150
#	20000
#	41145
#	60867
#	80635
#	101437
#	121517
#	144675
#	164555
#	188870
#
# Disc length: 2800 seconds
#
# Revision: 0
# Processed by: cddbd v1.5PL3 Copyright (c) Steve Scherf et al.
# Submitted via: CDex 1.51
#
DISCID=810aee0a
DTITLE=今井優子 - 殺したいほどTONIGHT
DYEAR=1989
DGENRE=JPop
TTITLE0=MORNING〜ある朝の風景〜
TTITLE1=YURIの帰国
TTITLE2=SO LONG
TTITLE3=殺したいほどTONIGHT
TTITLE4=惑わせて･･････
TTITLE5=ダイヤモンドは傷つかない
TTITLE6=ボードレールと眠る部屋
TTITLE7=Secret Vacation
TTITLE8=Plastic Dreamer
TTITLE9=心の隅から
EXTD=YEAR: 1989.07.05
EXTT0=
EXTT1=
EXTT2=
EXTT3=
EXTT4=
EXTT5=
EXTT6=
EXTT7=
EXTT8=
EXTT9=
PLAYORDER=
